<svg xmlns="http://www.w3.org/2000/svg" width="760" height="270" viewBox="0 0 760 270" role="img" aria-label="Геометрический смысл векторного произведения" style="display:block;width:100%;height:auto;color:#24292f;">
  <rect width="100%" height="100%" fill="#ffffff"/>
  <defs>
    <marker id="s1vecprod" markerWidth="9" markerHeight="9" refX="8" refY="4.5" orient="auto"><path d="M0,0 L9,4.5 L0,9 Z" fill="currentColor"/></marker>
  </defs>
  <g stroke="currentColor" fill="none" stroke-linecap="round" stroke-linejoin="round">
    <!-- triangle -->
    <circle cx="80" cy="175" r="3.8" fill="currentColor"/>
    <line x1="80" y1="175" x2="280" y2="175" stroke-width="2.8" marker-end="url(#s1vecprod)"/>
    <line x1="80" y1="175" x2="165" y2="55" stroke-width="2.8" marker-end="url(#s1vecprod)"/>
    <line x1="165" y1="55" x2="280" y2="175" stroke-width="2.1"/>
    <path d="M128 175 A48 48 0 0 0 104 136" stroke-width="1.8"/>

    <!-- parallelogram -->
    <circle cx="410" cy="175" r="3.8" fill="currentColor"/>
    <line x1="410" y1="175" x2="610" y2="175" stroke-width="2.8" marker-end="url(#s1vecprod)"/>
    <line x1="410" y1="175" x2="495" y2="55" stroke-width="2.8" marker-end="url(#s1vecprod)"/>
    <line x1="495" y1="55" x2="695" y2="55" stroke-width="2.1"/>
    <line x1="610" y1="175" x2="695" y2="55" stroke-width="2.1"/>
    <path d="M458 175 A48 48 0 0 0 434 136" stroke-width="1.8"/>
  </g>
  <g fill="currentColor" font-size="18">
    <text x="178" y="204">a</text>
    <text x="130" y="105">b</text>
    <text x="98" y="160">α</text>
    <text x="168" y="150" font-size="20">S△</text>

    <text x="508" y="204">a</text>
    <text x="460" y="115">b</text>
    <text x="428" y="160">α</text>
    <text x="546" y="136" font-size="20">S□</text>
  </g>
</svg>